<svg width="161" height="161" viewBox="0 0 161 161" fill="none" xmlns="http://www.w3.org/2000/svg">
<ellipse cx="80.8838" cy="80.7174" rx="60.1026" ry="60.1148" fill="#1EBFBF"/>
<rect x="29.9736" y="20.0708" width="101.883" height="31.5695" rx="15.7848" fill="#16191C"/>
<path d="M54.7246 40.0498H49.6491L48.8355 42.4519H45.3679L50.2884 28.8527H54.1241L59.0446 42.4519H55.5383L54.7246 40.0498ZM53.8723 37.4927L52.1869 32.514L50.5209 37.4927H53.8723ZM63.6611 31.5067V34.2575H68.0973V36.8146H63.6611V39.798H68.6785V42.4519H60.3485V28.8527H68.6785V31.5067H63.6611ZM75.5559 42.5875C74.5615 42.5875 73.6704 42.4261 72.8826 42.1032C72.0948 41.7804 71.462 41.3025 70.9841 40.6697C70.5192 40.0369 70.2738 39.2749 70.248 38.3838H73.7737C73.8254 38.8875 73.9997 39.2749 74.2968 39.5461C74.5938 39.8044 74.9812 39.9336 75.4591 39.9336C75.9498 39.9336 76.3373 39.8238 76.6214 39.6042C76.9055 39.3718 77.0476 39.0554 77.0476 38.655C77.0476 38.3192 76.9314 38.0415 76.6989 37.822C76.4794 37.6024 76.2017 37.4216 75.8659 37.2796C75.543 37.1375 75.0781 36.9761 74.4711 36.7953C73.5929 36.524 72.8761 36.2528 72.3208 35.9816C71.7655 35.7104 71.2876 35.3101 70.8872 34.7806C70.4869 34.251 70.2867 33.5601 70.2867 32.7077C70.2867 31.4421 70.7452 30.4541 71.6621 29.7438C72.5791 29.0206 73.7737 28.6589 75.246 28.6589C76.7441 28.6589 77.9516 29.0206 78.8686 29.7438C79.7855 30.4541 80.2763 31.4485 80.3409 32.7271H76.757C76.7312 32.288 76.5698 31.9458 76.2727 31.7004C75.9757 31.4421 75.5947 31.3129 75.1298 31.3129C74.7294 31.3129 74.4065 31.4227 74.1612 31.6423C73.9158 31.8489 73.7931 32.1524 73.7931 32.5527C73.7931 32.9919 73.9997 33.3341 74.413 33.5795C74.8263 33.8249 75.472 34.0896 76.3502 34.3737C77.2284 34.6708 77.9387 34.9549 78.4812 35.2261C79.0365 35.4973 79.5143 35.8912 79.9147 36.4078C80.3151 36.9244 80.5152 37.5895 80.5152 38.4032C80.5152 39.178 80.3151 39.8819 79.9147 40.5147C79.5272 41.1475 78.959 41.6512 78.2099 42.0258C77.4609 42.4003 76.5762 42.5875 75.5559 42.5875ZM81.9146 39.798C82.3537 39.4493 82.5539 39.2878 82.5151 39.3136C83.7808 38.2675 84.7752 37.4087 85.4984 36.7371C86.2346 36.0656 86.8545 35.3617 87.3582 34.6256C87.8618 33.8894 88.1137 33.1727 88.1137 32.4753C88.1137 31.9458 87.991 31.5325 87.7456 31.2354C87.5002 30.9384 87.1321 30.7899 86.6414 30.7899C86.1506 30.7899 85.7632 30.9771 85.4791 31.3517C85.2078 31.7133 85.0722 32.2299 85.0722 32.9014H81.8758C81.9017 31.8037 82.1341 30.8867 82.5732 30.1506C83.0252 29.4145 83.6129 28.872 84.3361 28.5233C85.0722 28.1746 85.8859 28.0003 86.777 28.0003C88.3139 28.0003 89.4697 28.3942 90.2446 29.182C91.0324 29.9698 91.4263 30.9965 91.4263 32.2622C91.4263 33.644 90.9549 34.9291 90.0121 36.1172C89.0694 37.2925 87.8683 38.4419 86.4089 39.5655H91.6394V42.2582H81.9146V39.798ZM102.862 31.1967H96.8174V33.8701C97.0757 33.5859 97.4373 33.3535 97.9022 33.1727C98.3672 32.9919 98.8708 32.9014 99.4133 32.9014C100.382 32.9014 101.183 33.121 101.815 33.5601C102.461 33.9992 102.933 34.5675 103.23 35.2649C103.527 35.9623 103.675 36.7178 103.675 37.5314C103.675 39.0424 103.249 40.2435 102.397 41.1346C101.544 42.0128 100.343 42.4519 98.7934 42.4519C97.7602 42.4519 96.8626 42.2776 96.1006 41.9289C95.3386 41.5673 94.751 41.0701 94.3377 40.4372C93.9245 39.8044 93.6985 39.0747 93.6597 38.2482H96.8949C96.9724 38.6485 97.1596 38.9843 97.4567 39.2555C97.7537 39.5138 98.1605 39.643 98.6771 39.643C99.2841 39.643 99.7361 39.4493 100.033 39.0618C100.33 38.6744 100.479 38.1578 100.479 37.512C100.479 36.8792 100.324 36.3949 100.014 36.0591C99.7038 35.7233 99.2518 35.5554 98.6577 35.5554C98.2186 35.5554 97.857 35.6652 97.5729 35.8848C97.2888 36.0914 97.1015 36.3691 97.0111 36.7178H93.8147V28.2909H102.862V31.1967ZM112.303 32.1266C112.2 31.6487 112.019 31.2936 111.761 31.0611C111.503 30.8157 111.135 30.693 110.657 30.693C109.921 30.693 109.391 31.0159 109.068 31.6616C108.745 32.2945 108.577 33.3018 108.565 34.6837C108.849 34.2317 109.255 33.8765 109.785 33.6182C110.327 33.3599 110.921 33.2308 111.567 33.2308C112.833 33.2308 113.847 33.6311 114.609 34.4319C115.384 35.2326 115.771 36.3497 115.771 37.7832C115.771 38.726 115.577 39.5526 115.19 40.2629C114.815 40.9732 114.26 41.5285 113.524 41.9289C112.801 42.3293 111.942 42.5294 110.947 42.5294C108.958 42.5294 107.577 41.9095 106.802 40.6697C106.027 39.417 105.639 37.6218 105.639 35.2842C105.639 32.8304 106.046 31.0094 106.86 29.8213C107.686 28.6202 109.004 28.0197 110.812 28.0197C111.78 28.0197 112.594 28.2134 113.253 28.6008C113.924 28.9753 114.428 29.4726 114.764 30.0925C115.112 30.7124 115.319 31.3904 115.384 32.1266H112.303ZM110.773 35.846C110.218 35.846 109.753 36.0139 109.378 36.3497C109.017 36.6726 108.836 37.1375 108.836 37.7445C108.836 38.3644 109.004 38.8487 109.339 39.1974C109.688 39.5461 110.179 39.7205 110.812 39.7205C111.38 39.7205 111.825 39.5526 112.148 39.2168C112.484 38.8681 112.652 38.3967 112.652 37.8026C112.652 37.1956 112.491 36.7178 112.168 36.3691C111.845 36.0204 111.38 35.846 110.773 35.846Z" fill="#F9F9F9"/>
<path fill-rule="evenodd" clip-rule="evenodd" d="M48.4832 131.345C48.6807 131.268 48.8466 131.162 48.9779 131.025C52.5001 127.347 55.8442 124.615 59.6071 122.868C61.2341 122.112 66.7439 120.52 72.8899 118.743C80.959 116.411 90.1246 113.762 93.0395 112.274C98.1746 109.652 115.096 99.5433 117.95 96.0025C120.803 92.4617 123.05 79.295 123.05 79.295C123.05 79.295 124.741 77.1211 131.005 72.7109C137.269 68.3007 140.4 66.0952 139.039 62.8961C137.677 59.6969 133.32 60.3883 133.32 60.3883C133.32 60.3883 131.468 56.3797 127.147 56.4742C123.53 56.5533 118.181 59.5093 110.094 63.9791C108.523 64.8474 106.848 65.7728 105.063 66.7453C94.0879 72.7244 83.6526 73.8221 83.6526 73.8221C83.6526 73.8221 87.0662 70.9152 89.6068 66.6364C89.6964 66.4854 89.7874 66.3324 89.8795 66.1775C92.3972 61.943 95.7576 56.2913 96.1084 51.5137C96.472 46.5613 94.519 41.2886 88.3517 49.0001C82.1844 56.7116 72.895 63.5734 60.7204 71.5162C49.4761 78.8521 31.0321 98.4361 25.7558 104.683C30.5371 115.664 38.5013 124.94 48.4832 131.345Z" fill="#F9F9F9"/>
<path d="M83.6523 73.8221C78.9436 74.3719 77.2548 75.5268 77.2548 75.5268" stroke="#16191C" stroke-width="0.717489" stroke-linecap="round" stroke-linejoin="round"/>
<path d="M94.335 46.7201C93.786 53.2283 90.2711 56.806 88.1312 57.5525C85.9912 58.2991 84.0993 55.0091 84.0993 55.0091" stroke="#16191C" stroke-width="0.717489" stroke-linecap="round" stroke-linejoin="round"/>
<path d="M130.83 58.9767C124.754 58.364 120.632 61.2553 119.888 63.6073C119.143 65.9592 122.143 68.4913 122.143 68.4913" stroke="#16191C" stroke-width="0.717489" stroke-linecap="round" stroke-linejoin="round"/>
<path d="M133.32 60.3883C133.878 62.0402 130.167 64.3959 128.564 65.6098C124.925 68.3694 118.111 73.838 112.201 77.3707C106.29 80.9033 90.537 87.6077 90.537 87.6077" stroke="#16191C" stroke-width="0.717489" stroke-linecap="round" stroke-linejoin="round"/>
<path d="M123.379 79.2983C118.904 84.8375 116.324 86.3743 113.085 89.3518C109.847 92.3292 97.994 97.9547 97.994 97.9547" stroke="#16191C" stroke-width="0.717489" stroke-linecap="round" stroke-linejoin="round"/>
<path fill-rule="evenodd" clip-rule="evenodd" d="M48.4752 131.34C48.5559 131.313 48.6318 131.28 48.7027 131.24C48.8063 131.179 48.8981 131.108 48.9773 131.025C52.4995 127.347 55.8436 124.615 59.6065 122.868C61.2334 122.112 66.7432 120.52 72.8892 118.743L72.8893 118.743C80.9583 116.411 90.1239 113.762 93.0388 112.274C94.3152 111.622 96.3198 110.508 98.6556 109.147C97.3635 109.667 96.0237 110.179 94.6392 110.672L94.6385 110.671C87.3006 113.29 83.4371 113.64 78.7418 114.065C74.7951 114.423 70.2608 114.833 62.5814 116.689C56.5394 118.15 52.3117 120.248 48.8962 121.944C45.4499 123.654 42.8305 124.954 40.0084 124.775C42.6247 127.204 45.4578 129.403 48.4752 131.34Z" fill="#16191C"/>
<path d="M141.601 91.8632C143.532 84.6332 139.291 77.2208 132.128 75.3072C124.965 73.3935 117.592 77.7032 115.661 84.9332C114.505 89.2599 115.56 93.652 118.128 96.8917C118.962 97.9437 119.402 99.3016 119.055 100.599L112.705 124.368C112.512 125.091 112.655 125.862 113.093 126.463L115.868 130.264C116.543 131.19 117.767 131.517 118.814 131.051L123.114 129.14C123.794 128.838 124.303 128.241 124.496 127.518L124.897 126.014C125.023 125.546 125.687 125.236 126.25 124.974C126.446 124.883 126.63 124.797 126.775 124.712L127.395 124.35C128.222 123.867 128.506 122.801 128.031 121.97C127.555 121.139 127.84 120.073 128.667 119.59C129.493 119.106 129.778 118.041 129.303 117.209L128.946 116.586C128.863 116.44 128.746 116.275 128.622 116.098C128.264 115.589 127.843 114.99 127.968 114.521L130.846 103.749C131.192 102.452 132.251 101.494 133.498 100.998C137.34 99.4708 140.445 96.1899 141.601 91.8632Z" fill="#16191C"/>
<circle cx="129.837" cy="83.884" r="3.67802" transform="rotate(14.9577 129.837 83.884)" fill="#F9F9F9"/>
<path d="M117.822 60.0259C109.75 53.3892 115.669 75.2726 125.535 80.8331C133.427 85.2815 128.943 73.4789 125.535 68.0977" stroke="#16191C" stroke-width="0.717489" stroke-linecap="round"/>
<path d="M124.664 100.923L121.589 112.648C121.45 113.177 121.534 113.741 121.823 114.207L122.184 114.79C122.756 115.714 122.209 116.923 121.139 117.11V117.11C119.89 117.328 119.428 118.886 120.362 119.744V119.744C121.12 120.44 120.988 121.67 120.101 122.19L119.6 122.484C119.153 122.746 118.827 123.175 118.696 123.677L118.078 126.032" stroke="#F9F9F9" stroke-width="0.717489" stroke-linecap="round"/>
</svg>
