<svg width="161" height="161" viewBox="0 0 161 161" fill="none" xmlns="http://www.w3.org/2000/svg">
<g clip-path="url(#clip0_3124_4961)">
<circle cx="80.9155" cy="80.6983" r="60.1342" fill="#1EBFBF"/>
<path d="M128.879 42.5897C132.142 48.395 124.616 66.7338 122.928 91.5065L113.901 59.6204C114.803 56.661 116.793 49.8526 117.531 46.2942C118.454 41.846 110.176 26.2735 113.378 22.5334C118.998 15.9674 125.617 36.7845 128.879 42.5897Z" fill="#16191C"/>
<path fill-rule="evenodd" clip-rule="evenodd" d="M98.7184 138.154C96.7246 136.146 94.6613 134.372 92.5439 132.971C81.2826 125.518 68.2568 117.027 55.2846 110.24C52.0351 108.54 48.849 107.106 46.0251 105.835C37.5759 102.034 32.369 99.6912 38.4071 96.0258C44.7975 92.1465 59.1397 97.4848 68.9264 101.128C71.4776 102.077 73.7192 102.911 75.4298 103.437C83.7021 105.98 89.3896 97.0463 91.6933 86.4674C93.8502 76.563 81.7151 67.7081 74.0323 62.1021C73.5092 61.7204 73.0067 61.3537 72.5308 61.0028C67.2554 57.1133 62.2747 58.5026 56.795 60.0311C54.52 60.6657 52.1591 61.3243 49.6553 61.639C41.1208 62.7119 36.5985 58.8771 39.1427 55.3769C41.6869 51.8767 71.798 43.5236 77.6781 45.5594C79.328 46.1306 82.6697 48.2158 86.6863 50.9745C86.5038 48.3714 85.4987 42.5421 79.3651 39.3672C77.9944 38.6577 76.1814 37.8069 74.139 36.8484C64.7576 32.4458 50.5345 25.771 52.0855 20.0781C53.1496 16.1724 65.4987 21.4689 73.9357 25.0875C74.949 25.5221 75.9058 25.9325 76.7798 26.2998C76.4765 25.9208 76.0938 25.486 75.6757 25.0111C73.4423 22.474 70.2019 18.7929 72.6903 16.3651C74.9811 14.1301 96.4852 26.9823 101.951 30.7716C108.823 35.5358 120.162 68.4849 120.928 73.1039C121.058 73.8851 121.263 75.2392 121.528 76.9854C122.827 85.5633 125.56 103.603 127.809 109.682C128.255 110.888 129.292 112.512 130.718 114.41C123.139 125.585 111.898 134.074 98.7184 138.154Z" fill="#F9F9F9"/>
<path fill-rule="evenodd" clip-rule="evenodd" d="M80.2728 28.0517C84.4475 30.1484 90.2459 33.0607 95.4475 36.1283C104.106 41.2346 111.494 53.6586 115.209 60.4548C117.329 64.3321 119.777 71.3873 121.528 76.9886C121.528 76.9876 121.527 76.9865 121.527 76.9855C121.263 75.2393 121.058 73.8853 120.928 73.104C120.162 68.4851 108.823 35.5359 101.951 30.7717C96.485 26.9825 74.9809 14.1302 72.6901 16.3652C70.2017 18.793 73.4421 22.4741 75.6755 25.0112C76.0819 25.4729 76.455 25.8967 76.7541 26.2682C77.6977 26.7584 78.8971 27.3608 80.2728 28.0517Z" fill="#16191C"/>
<path d="M86.1533 50.0795C89.8555 52.6787 101.77 62.2871 104.752 71.7755" stroke="#16191C" stroke-width="0.717489" stroke-linecap="round"/>
<path d="M53.4251 22.4138C54.464 22.8836 58.912 25.295 60.0229 25.3252C61.7693 25.3252 62.5412 22.8025 62.5412 21.3057M42.7344 58.7109C44.7956 58.7447 48.1596 58.2399 49.3497 56.7602C50.2792 55.6046 49.3875 53.5515 48.7676 52.6851M39.2595 97.1237C42.9279 97.921 45.5667 99.0711 46.4394 100.423C47.367 101.859 46.3941 103.498 45.8572 104.304M66.3421 21.6402C62.5155 20.2052 54.5035 17.6223 53.0685 18.7702C51.2748 20.2052 51.6336 23.0752 54.5035 25.5864" stroke="#16191C" stroke-width="0.717489" stroke-linecap="round"/>
<path d="M43.5273 95.1826C50.7078 95.1826 56.5287 87.4504 56.5287 77.9122C56.5287 68.3739 50.7078 60.6417 43.5273 60.6417H38.8701V95.1826H43.5273Z" fill="#16191C"/>
<ellipse cx="39.2582" cy="77.9122" rx="13.0014" ry="17.2705" fill="#F9F9F9"/>
<path d="M43.792 81.0934C43.792 81.8699 43.6141 82.6017 43.2582 83.2886C42.9155 83.9606 42.4014 84.5206 41.7159 84.9686C41.0436 85.4017 40.2461 85.6556 39.3234 85.7302V86.9119C39.3234 87.2614 39.0401 87.5447 38.6907 87.5447C38.3413 87.5447 38.058 87.2614 38.058 86.9119V85.7078C36.7398 85.5734 35.6787 85.1254 34.8746 84.3638C34.2272 83.7386 33.8319 82.9392 33.6887 81.9656C33.6295 81.5633 33.9629 81.2278 34.3696 81.2278H35.9203C36.3006 81.2278 36.6021 81.5267 36.7109 81.891C36.915 82.5747 37.364 83.0032 38.058 83.1766V78.8981C37.1089 78.6293 36.3443 78.3605 35.7644 78.0917C35.1844 77.8229 34.6834 77.3898 34.2616 76.7925C33.8398 76.1951 33.6289 75.3813 33.6289 74.3508C33.6289 73.0516 34.0375 71.9913 34.8548 71.17C35.6853 70.3486 36.753 69.8782 38.058 69.7588V68.5771C38.058 68.2276 38.3413 67.9443 38.6907 67.9443C39.0401 67.9443 39.3234 68.2276 39.3234 68.5771V69.7588C40.5889 69.8782 41.5973 70.3113 42.3486 71.058C42.9565 71.6517 43.3519 72.4247 43.5348 73.3772C43.6142 73.7906 43.2761 74.1492 42.8552 74.1492H41.3109C40.9355 74.1492 40.6374 73.8549 40.4999 73.5057C40.4323 73.3339 40.3433 73.1751 40.233 73.0292C40.0089 72.7007 39.7057 72.4692 39.3234 72.3348V76.5685C40.3121 76.8522 41.0898 77.1285 41.6566 77.3973C42.2366 77.6512 42.7375 78.0768 43.1593 78.6741C43.5811 79.2565 43.792 80.0629 43.792 81.0934ZM36.5157 74.194C36.5157 74.6869 36.6475 75.0901 36.9112 75.4037C37.1748 75.7023 37.5571 75.9487 38.058 76.1429V72.2676C37.5834 72.3423 37.2078 72.5439 36.9309 72.8724C36.6541 73.201 36.5157 73.6415 36.5157 74.194ZM39.3234 83.2214C39.8243 83.1169 40.2132 82.8854 40.49 82.527C40.78 82.1686 40.925 81.7355 40.925 81.2278C40.925 80.735 40.7866 80.3392 40.5098 80.0405C40.233 79.7419 39.8375 79.4955 39.3234 79.3013V83.2214Z" fill="#1EBFBF"/>
</g>
<defs>
<clipPath id="clip0_3124_4961">
<rect width="120.538" height="125.561" fill="white" transform="translate(20.7812 15.5416)"/>
</clipPath>
</defs>
</svg>
