<svg width="161" height="161" viewBox="0 0 161 161" fill="none" xmlns="http://www.w3.org/2000/svg">
<circle cx="80.9155" cy="80.6983" r="60.1342" fill="#1EBFBF"/>
<path fill-rule="evenodd" clip-rule="evenodd" d="M83.8955 140.76C82.9083 140.808 81.9149 140.833 80.9157 140.833C57.315 140.833 36.8898 127.237 27.0449 107.45L65.1952 55.3744L105.288 111.523C108.145 122.466 98.13 132.529 83.8955 140.76Z" fill="#F9F9F9"/>
<rect x="55.8955" y="11.9542" width="57.4699" height="119.776" rx="10.5901" fill="#1EBFBF"/>
<path d="M55.8955 27.4517V79.5911M113.365 31.9718V50.6979M113.365 114.302V121.141C113.365 126.989 108.624 131.731 102.775 131.731H96.8993" stroke="#16191C" stroke-width="0.717489" stroke-linecap="round"/>
<mask id="mask0_3124_4958" style="mask-type:alpha" maskUnits="userSpaceOnUse" x="58" y="14" width="54" height="116">
<rect x="58.0293" y="14.1341" width="53.3446" height="115.509" rx="9.00946" fill="#D9D9D9"/>
</mask>
<g mask="url(#mask0_3124_4958)">
<rect x="58.0293" y="14.1341" width="53.3446" height="115.509" rx="9.00946" fill="#16191C"/>
<path d="M77.4629 74.912L77.566 63.8279C77.5843 61.8681 78.3803 59.9958 79.7789 58.6229C81.1776 57.25 83.0644 56.489 85.0242 56.5072C86.9839 56.5255 88.8562 57.3215 90.2291 58.7201C91.602 60.1188 92.363 62.0056 92.3448 63.9653L92.3199 76.2356" stroke="#F9F9F9" stroke-width="2.15247" stroke-linecap="round"/>
<path fill-rule="evenodd" clip-rule="evenodd" d="M75.1307 67.4984C74.5321 67.4928 74.0424 67.9735 74.0368 68.5721L73.8851 84.8779C73.8796 85.4765 74.3603 85.9663 74.9588 85.9718L94.9594 86.1579C95.558 86.1634 96.0477 85.6827 96.0533 85.0841L96.205 68.7783C96.2105 68.1797 95.7298 67.69 95.1312 67.6844L75.1307 67.4984ZM87.8416 74.0827C87.831 75.2313 87.123 76.2101 86.1234 76.621L86.087 80.5323C86.0815 81.1266 85.5952 81.604 85.0008 81.5984C84.4065 81.5929 83.9291 81.1066 83.9347 80.5123L83.971 76.6013C82.9789 76.172 82.2889 75.18 82.2996 74.0311C82.3138 72.5007 83.566 71.2716 85.0964 71.2859C86.6268 71.3001 87.8559 72.5523 87.8416 74.0827Z" fill="#1EBFBF"/>
<circle cx="84.9529" cy="72.007" r="23.1283" stroke="#1EBFBF" stroke-width="0.717489"/>
<circle cx="84.9533" cy="72.007" r="37.0936" stroke="#1EBFBF" stroke-width="0.717489"/>
</g>
<path d="M70.2617 11.9542H98.9699V14.2148C98.9699 16.7872 96.8846 18.8725 94.3123 18.8725H74.9193C72.347 18.8725 70.2617 16.7872 70.2617 14.2148V11.9542Z" fill="#1EBFBF"/>
<path fill-rule="evenodd" clip-rule="evenodd" d="M41.4169 126.043C34.7648 120.243 29.4008 113.004 25.8105 104.811C36.0634 93.6552 41.1272 85.3635 45.0452 77.7659C46.0691 75.7804 47.0171 71.282 48.0903 66.1897C50.2019 56.1707 52.7979 43.8527 57.4091 43.8527C64.3639 43.8527 66.6195 53.0386 65.1807 64.6954C63.8329 75.6149 63.9523 76.196 65.727 84.8372C65.975 86.0444 66.2552 87.4089 66.5683 88.9808C69.1223 101.805 62.923 118.363 56.7565 123.141C54.9439 124.545 48.9501 125.452 41.4169 126.043Z" fill="#F9F9F9"/>
<path d="M49.9912 62.5757C49.9912 62.5757 54.4017 63.1957 56.7032 61.5159C59.3924 59.5533 60.2358 54.3293 60.2358 49.1518" stroke="#16191C" stroke-width="0.717489" stroke-linecap="round"/>
<path d="M104.018 109.779C105.48 107.344 112.615 102.243 116.736 100.241C118.267 99.4168 122.105 98.9693 125.214 103.774C129.1 109.779 116.736 117.032 109.671 118.611C102.741 120.159 101.899 113.311 104.018 109.779Z" fill="#F9F9F9"/>
<path d="M129.109 91.9507C127.978 87.1464 122.279 85.9453 119.57 85.9453C117.804 87.9471 109.467 95.4834 107.206 95.4834C104.38 95.4834 96.9617 97.9562 97.6683 104.668C98.3748 111.38 113.212 107.494 119.57 105.728C125.929 103.962 130.522 97.9562 129.109 91.9507Z" fill="#F9F9F9"/>
<path d="M100.166 94.5386C94.7949 88.4183 104.523 83.3519 107.232 81.8211L113.944 71.2233C116.534 70.87 122.493 70.3755 125.601 71.2233C129.487 72.2831 131.253 79.3483 128.427 84.6472C125.601 89.9462 105.403 100.505 100.166 94.5386Z" fill="#F9F9F9"/>
<path d="M121.575 69.342C127.509 58.6029 117.098 51.9144 113.566 50.9724C113.566 50.9724 113.519 54.1274 112.054 55.9181C105.985 63.3366 97.8504 74.2877 98.9658 78.5268C100.595 84.7187 106.621 84.7696 112.054 80.7373C115.315 78.3176 118.792 74.3764 121.575 69.342Z" fill="#F9F9F9"/>
<path d="M102.214 84.1793C105.746 83.3551 115.496 79.3043 120.583 71.1086M102.214 75.3478C102.214 75.3478 105.591 72.2459 107.866 71.1086C110.692 69.6958 115.638 73.9347 112.811 79.1014M125.529 87.712C118.668 91.8021 112.977 94.2034 108.572 95.5414M100.447 89.8318C102.214 88.772 106.099 86.2986 108.926 86.2986C111.074 86.2986 113.761 89.4785 112.811 91.9514C112.052 93.9296 109.669 95.169 108.572 95.5414M108.572 95.5414C107.366 95.9079 106.175 96.1539 105.04 96.3119M106.453 108.554C110.81 108.319 119.877 106.647 124.116 103.255M100.447 100.782C100.447 100.782 104.836 98.8369 106.806 99.016C110.692 99.3693 112.105 104.315 109.985 106.081C108.757 107.105 105.746 107.377 103.273 107.494M105.393 112.793C106.806 111.851 109.349 110.038 111.045 110.32C113.165 110.674 115.284 114.206 114.578 115.266C114.013 116.114 111.634 117.268 110.692 117.739" stroke="#16191C" stroke-width="0.717489" stroke-linecap="round"/>
</svg>
