<svg width="161" height="161" viewBox="0 0 161 161" fill="none" xmlns="http://www.w3.org/2000/svg">
<g clip-path="url(#clip0_3124_4962)">
<circle cx="80.9155" cy="80.6983" r="60.1342" fill="#1EBFBF"/>
<path fill-rule="evenodd" clip-rule="evenodd" d="M92.4314 139.731C90.8285 138.647 89.2992 137.571 87.8653 136.517C86.7484 135.901 85.6504 135.65 84.0054 135.273C82.9047 135.02 81.5591 134.712 79.7992 134.201C75.4091 132.925 72.4213 130.215 71.4762 129.019L74.3792 93.1214L87.8653 93.0846C88.8991 94.4599 91.1209 98.0538 91.7381 101.427C92.0015 102.867 94.7749 105.125 97.9541 107.713C102.223 111.188 107.223 115.258 107.861 118.744C114.712 121.123 119.438 122.266 123.836 122.816C115.481 131.33 104.612 137.368 92.4314 139.731Z" fill="#F9F9F9"/>
<path d="M124.822 64.5075L135.066 69.5325C138.547 84.191 127.103 99.9642 121.69 101.373C121.69 101.373 111.741 98.2774 109.099 96.9428C116.651 85.7812 122.031 72.3988 124.822 64.5075Z" fill="#F9F9F9"/>
<path d="M122.796 97.1423C126.157 94.3536 133.05 85.8589 133.736 74.1892" stroke="#16191C" stroke-width="0.790319" stroke-linecap="round"/>
<path d="M72.4987 84.1135C72.611 84.3611 77.7417 87.0596 80.3927 88.4184C74.5964 96.742 62.5801 114.372 60.8855 118.302C60.4939 119.826 59.5221 122.943 58.7673 123.215C58.5881 123.28 58.3595 123.338 58.1099 123.402C57.0451 123.675 55.5988 124.045 55.9825 125.401C56.4562 127.074 64.4964 136.666 67.6431 135.084C70.7899 133.503 84.5219 115.57 86.1032 111.845C87.3682 108.865 94.0761 100.302 97.2719 96.3929C100.496 98.2893 107.02 102.035 107.321 101.846C121.788 96.9398 131.849 66.4014 127.427 60.1195L93.2207 43.0076C89.1727 40.8709 66.6232 71.163 72.4987 84.1135Z" fill="#FA3556"/>
<path fill-rule="evenodd" clip-rule="evenodd" d="M72.4475 84.0001C74.9028 85.536 79.1199 83.8416 84.6128 78.4795C91.2411 72.009 96.8861 75.9088 102.122 79.5261C107.447 83.2051 112.35 86.5918 117.434 78.4795C122.196 70.8799 124.805 64.6204 125.553 59.1811L127.425 60.1177C131.847 66.3996 121.787 96.9381 107.319 101.844C107.019 102.033 100.495 98.2875 97.2705 96.3911C94.0747 100.3 87.3668 108.863 86.1018 111.843C84.5205 115.569 70.7885 133.501 67.6417 135.082C64.495 136.664 56.4549 127.072 55.9811 125.399C55.5974 124.044 57.0438 123.673 58.1085 123.401C58.3581 123.337 58.5868 123.278 58.7659 123.213C59.5207 122.941 60.4926 119.825 60.8842 118.3C62.5787 114.37 74.595 96.7402 80.3914 88.4166C77.7404 87.0579 72.6096 84.3594 72.4973 84.1118C72.4805 84.0747 72.4639 84.0375 72.4475 84.0001Z" fill="#16191C"/>
<path d="M74.1735 79.0499C49.7601 66.4394 36.5277 75.955 26.2439 77.3346C24.9778 52.31 43.8074 16.2115 57.8392 9.53802C75.4145 38.4276 79.332 41.5434 90.7212 47.2511C93.5694 55.346 83.1252 78.4332 74.1735 79.0499Z" fill="#F9F9F9"/>
<path d="M93.2197 43.0069L93.2017 42.9979L92.9384 43.4693C93.0337 43.3117 93.1276 43.1575 93.2197 43.0069Z" fill="#F9F9F9"/>
<ellipse cx="42.2228" cy="43.5055" rx="8.77729" ry="37.7852" transform="rotate(24.892 42.2228 43.5055)" fill="#16191C"/>
<path d="M31.2787 72.8684C28.1183 71.4019 31.435 57.5438 38.6868 41.9155C45.9386 26.2871 54.3794 14.8066 57.5397 16.2731" stroke="#F9F9F9" stroke-width="0.717489" stroke-linecap="round"/>
<path d="M58.9949 102.472C60.6745 101.025 63.0419 101.536 64.0157 101.973C67.7588 104.109 75.1773 109.065 76.5742 110.151C79.0169 112.051 79.4026 114.159 77.6423 115.99C75.8821 117.82 70.253 114.995 68.9031 114.488C67.5532 113.98 60.1758 110.302 58.7507 108.467C57.3256 106.633 56.8954 104.281 58.9949 102.472Z" fill="#F9F9F9"/>
<path d="M56.01 111.818C54.4792 114.445 58.289 118.702 60.2718 120.379L60.8602 118.451C61.6929 117.963 65.2904 120.127 68.1038 119.746C71.6204 119.27 72.2771 117.316 72.008 116.35C71.5194 114.596 63.2796 111.242 61.7675 110.765C60.2554 110.287 57.9236 108.535 56.01 111.818Z" fill="#F9F9F9"/>
<path d="M64.7883 94.2884C66.1443 93.6381 68.3814 94.0781 69.3304 94.3793C71.1589 94.2962 77.3895 100.867 78.4378 102.016C79.4861 103.165 82.0394 105.212 82.344 107.335C82.6487 109.458 81.4481 110.684 79.5167 111.121C77.5854 111.558 71.8821 108.327 69.7866 106.951C67.6911 105.574 62.7169 101.707 61.9402 99.335C60.9823 96.4094 63.0933 95.1013 64.7883 94.2884Z" fill="#F9F9F9"/>
<path d="M71.0315 86.2741C73.5023 85.4869 77.0512 86.6535 78.5168 87.3352C79.4635 87.7765 81.4161 88.7994 81.6526 89.3595C81.9483 90.0596 78.7601 94.1628 79.9855 95.3633C81.2108 96.5638 83.7968 101.538 82.53 102.859C81.2632 104.181 79.6621 103.216 77.884 102.201C76.1059 101.185 72.8889 99.1757 71.8041 98.2847C70.7192 97.3937 68.4515 93.7021 68.1914 91.8221C67.9313 89.9421 67.9431 87.2582 71.0315 86.2741Z" fill="#F9F9F9"/>
<path d="M69.1818 94.4915C69.8467 95.6828 71.973 98.2047 73.2128 99.1176C74.4525 100.031 77.7385 102.173 79.4698 103.085M77.5976 90.1025L78.3284 90.8906M63.6746 101.952C67.7846 104.72 76.2776 110.374 77.3694 110.844M61.9441 110.817C64.5163 112.05 69.8245 114.588 71.247 115.4" stroke="#16191C" stroke-width="0.790319" stroke-linecap="round"/>
<path d="M100.5 94.0575C102.878 96.9748 106.579 109.031 110.061 120.392L93.3388 126.376C91.5686 125.862 85.8238 118.281 85.9928 110.958C86.1618 103.636 90.1303 98.3011 89.1127 98.2358C88.2986 98.1836 86.5642 96.2158 85.7988 95.2384C84.0497 96.0613 79.8656 97.5307 77.1219 96.8258C73.6923 95.9447 73.3204 92.9957 76.7401 91.5321C80.1598 90.0684 82.5361 85.192 84.7405 84.8725C86.9448 84.553 98.1228 91.1401 100.5 94.0575Z" fill="#F9F9F9"/>
<path d="M85.1403 84.2963C82.936 84.6157 80.5255 90.0696 77.1058 91.5333C73.6861 92.9969 74.058 95.9459 77.4876 96.827C80.2313 97.5319 84.4154 96.0625 86.1645 95.2396C86.93 96.217 87.7055 97.489 89.4785 98.237C90.418 98.6334 86.5276 103.638 86.3586 110.96C86.2827 114.247 87.3991 117.587 88.8126 120.316" stroke="#16191C" stroke-width="0.790319" stroke-linecap="round"/>
<path d="M95.0786 46.7346C97.404 53.1437 92.8992 66.2342 86.8085 75.0491" stroke="#16191C" stroke-width="0.790319" stroke-linecap="round"/>
<path d="M32.9779 29.1739C41.9465 26.6627 50.1977 37.425 47.3277 49.2636C46.8494 48.7853 43.3098 45.2457 38.7178 49.2636C32.9779 54.286 28.3143 57.156 20.0631 52.4923C13.4622 48.7614 12.5295 41.3712 12.8883 38.1425C13.1274 39.4579 14.682 42.591 18.9869 44.5999C24.3681 47.1112 28.673 38.86 18.9869 37.425C11.238 36.2771 12.1708 28.3368 13.6057 24.5102C13.9645 35.2726 24.0093 31.6851 32.9779 29.1739Z" fill="#1EBFBF"/>
</g>
<defs>
<clipPath id="clip0_3124_4962">
<rect width="160" height="160" fill="white" transform="translate(0.691406 0.474365)"/>
</clipPath>
</defs>
</svg>
